<svg width="142" height="152" viewBox="0 0 142 152" fill="none" xmlns="http://www.w3.org/2000/svg">
<path d="M35.5992 53.3744L57.9112 3.37009C58.5545 1.92846 59.9854 1 61.5641 1H80.4201C82.0068 1 83.4435 1.93787 84.082 3.39045L106.043 53.3541C106.682 54.8067 108.118 55.7445 109.705 55.7445H137C139.209 55.7445 141 57.5354 141 59.7445V72.9124C141 75.1215 139.209 76.9124 137 76.9124H123.442C120.551 76.9124 118.615 79.8844 119.783 82.5286L138.519 124.946C139.687 127.59 137.751 130.562 134.86 130.562H119.887C118.314 130.562 116.887 129.64 116.24 128.205L73.9177 34.2763C72.5018 31.1339 68.0398 31.1339 66.6239 34.2763L24.3015 128.205C23.6552 129.64 22.2279 130.562 20.6546 130.562H7.17795C4.27746 130.562 2.34125 127.572 3.52824 124.925L22.5343 82.5493C23.7212 79.9029 21.785 76.9124 18.8845 76.9124H5C2.79086 76.9124 1 75.1216 1 72.9124V59.7445C1 57.5354 2.79086 55.7445 5 55.7445H31.9463C33.525 55.7445 34.9559 54.8161 35.5992 53.3744Z" fill="#161E26"/>
<path d="M59.3285 76.1225L66.8488 59.6091C68.2341 56.5672 72.518 56.4653 74.0464 59.4379L82.5886 76.0514C82.8795 76.6173 83.0312 77.2443 83.0312 77.8805V147C83.0312 149.209 81.2404 151 79.0312 151H62.9688C60.7596 151 58.9688 149.209 58.9688 147V77.7803C58.9688 77.2084 59.0914 76.6431 59.3285 76.1225Z" fill="#161E26"/>
<path d="M35.5992 53.3744L57.9112 3.37009C58.5545 1.92846 59.9854 1 61.5641 1H80.4201C82.0068 1 83.4435 1.93787 84.082 3.39045L106.043 53.3541C106.682 54.8067 108.118 55.7445 109.705 55.7445H137C139.209 55.7445 141 57.5354 141 59.7445V72.9124C141 75.1215 139.209 76.9124 137 76.9124H123.442C120.551 76.9124 118.615 79.8844 119.783 82.5286L138.519 124.946C139.687 127.59 137.751 130.562 134.86 130.562H119.887C118.314 130.562 116.887 129.64 116.24 128.205L73.9177 34.2763C72.5018 31.1339 68.0398 31.1339 66.6239 34.2763L24.3015 128.205C23.6552 129.64 22.2279 130.562 20.6546 130.562H7.17795C4.27746 130.562 2.34125 127.572 3.52824 124.925L22.5343 82.5493C23.7212 79.9029 21.785 76.9124 18.8845 76.9124H5C2.79086 76.9124 1 75.1216 1 72.9124V59.7445C1 57.5354 2.79086 55.7445 5 55.7445H31.9463C33.525 55.7445 34.9559 54.8161 35.5992 53.3744Z" stroke="white"/>
<path d="M59.3285 76.1225L66.8488 59.6091C68.2341 56.5672 72.518 56.4653 74.0464 59.4379L82.5886 76.0514C82.8795 76.6173 83.0312 77.2443 83.0312 77.8805V147C83.0312 149.209 81.2404 151 79.0312 151H62.9688C60.7596 151 58.9688 149.209 58.9688 147V77.7803C58.9688 77.2084 59.0914 76.6431 59.3285 76.1225Z" stroke="white"/>
</svg>
